<?xml version="1.0" encoding="UTF-8" standalone="no"?>
<!-- Created with Inkscape (http://www.inkscape.org/) -->

<svg
   version="1.1"
   id="svg1"
   width="1125.7445"
   height="428.66061"
   viewBox="0 0 1125.7445 428.66062"
   xml:space="preserve"
   sodipodi:docname="NPAP-Banner-alllight.svg"
   inkscape:version="1.4.3 (0d15f75, 2025-12-25)"
   inkscape:export-filename="NPAP-Banner-alllight.svg"
   inkscape:export-xdpi="96"
   inkscape:export-ydpi="96"
   xmlns:inkscape="http://www.inkscape.org/namespaces/inkscape"
   xmlns:sodipodi="http://sodipodi.sourceforge.net/DTD/sodipodi-0.dtd"
   xmlns="http://www.w3.org/2000/svg"
   xmlns:svg="http://www.w3.org/2000/svg"><sodipodi:namedview
     id="namedview1"
     pagecolor="#505050"
     bordercolor="#eeeeee"
     borderopacity="1"
     inkscape:showpageshadow="0"
     inkscape:pageopacity="0"
     inkscape:pagecheckerboard="0"
     inkscape:deskcolor="#505050"
     inkscape:zoom="2.1461353"
     inkscape:cx="562.87225"
     inkscape:cy="214.1058"
     inkscape:window-width="2560"
     inkscape:window-height="1369"
     inkscape:window-x="3448"
     inkscape:window-y="201"
     inkscape:window-maximized="1"
     inkscape:current-layer="svg1" /><defs
     id="defs1" /><g
     id="layer1"
     transform="matrix(-0.35756052,0,0,0.33729613,731.27652,-38.928851)"><g
       id="g100"
       style="opacity:1;fill:#ffffff;fill-opacity:1"><circle
         style="display:inline;opacity:1;fill:#ffffff;fill-opacity:1;stroke:#ffffff;stroke-width:1.42835;stroke-opacity:1"
         id="path2"
         cx="1407.9659"
         cy="469.63309"
         r="101" /><ellipse
         style="display:inline;opacity:1;fill:#ffffff;fill-opacity:1;stroke:#ffffff;stroke-width:1.23308;stroke-opacity:1"
         id="path38"
         cx="1689.3571"
         cy="304.69016"
         rx="23.266516"
         ry="23.282354" /><ellipse
         style="display:inline;opacity:1;fill:#ffffff;fill-opacity:1;stroke:#ffffff;stroke-width:1.23308;stroke-opacity:1"
         id="ellipse41"
         cx="1126.0748"
         cy="634.57727"
         rx="23.266516"
         ry="23.282354" /><ellipse
         style="display:inline;opacity:1;fill:#ffffff;fill-opacity:1;stroke:#ffffff;stroke-width:1.23308;stroke-opacity:1"
         id="ellipse70"
         cx="1408.2188"
         cy="139.31335"
         rx="23.266516"
         ry="23.282354" /><ellipse
         style="display:inline;opacity:1;fill:#ffffff;fill-opacity:1;stroke:#ffffff;stroke-width:1.23308;stroke-opacity:1"
         id="ellipse71"
         cx="1126.5748"
         cy="304.69141"
         rx="23.266516"
         ry="23.282354" /><ellipse
         style="display:inline;opacity:1;fill:#ffffff;fill-opacity:1;stroke:#ffffff;stroke-width:1.23308;stroke-opacity:1"
         id="ellipse72"
         cx="1409.6686"
         cy="799.95282"
         rx="23.266516"
         ry="23.282354" /><ellipse
         style="display:inline;opacity:1;fill:#ffffff;fill-opacity:1;stroke:#ffffff;stroke-width:1.23308;stroke-opacity:1"
         id="ellipse73"
         cx="1689.61"
         cy="634.14594"
         rx="23.266516"
         ry="23.282354" /><ellipse
         style="display:inline;opacity:1;fill:#ffffff;fill-opacity:1;stroke:#ffffff;stroke-width:1.23308;stroke-opacity:1"
         id="ellipse74"
         cx="1408.2188"
         cy="235.81335"
         rx="23.266516"
         ry="23.282354" /><ellipse
         style="display:inline;opacity:1;fill:#ffffff;fill-opacity:1;stroke:#ffffff;stroke-width:1.23308;stroke-opacity:1"
         id="ellipse75"
         cx="1407.8425"
         cy="703.45282"
         rx="23.266516"
         ry="23.282354" /><path
         style="display:inline;opacity:1;fill:#ffffff;fill-opacity:1;stroke:#ffffff;stroke-width:11.339;stroke-dasharray:none;stroke-opacity:1"
         d="M 1126.5748,634.57728 V 304.6914"
         id="path41" /><path
         style="display:inline;opacity:1;fill:#ffffff;fill-opacity:1;stroke:#ffffff;stroke-width:11.3386;stroke-dasharray:none;stroke-opacity:1"
         d="M 1126.5748,304.6914 1407.9659,139.74471"
         id="path42" /><path
         style="display:inline;opacity:1;fill:#ffffff;fill-opacity:1;stroke:#ffffff;stroke-width:11.3386;stroke-dasharray:none;stroke-opacity:1"
         d="M 1689.3571,304.6914 1407.9659,139.74471"
         id="path43" /><path
         style="display:inline;opacity:1;fill:#ffffff;fill-opacity:1;stroke:#ffffff;stroke-width:11.3386;stroke-dasharray:none;stroke-opacity:1"
         d="M 1689.3571,634.57729 V 304.6914"
         id="path44" /><path
         style="display:inline;opacity:1;fill:#ffffff;fill-opacity:1;stroke:#ffffff;stroke-width:11.3386;stroke-dasharray:none;stroke-opacity:1"
         d="M 1407.9659,139.74471 1126.5748,634.57728"
         id="path49" /><path
         style="display:inline;opacity:1;fill:#ffffff;fill-opacity:1;stroke:#ffffff;stroke-width:11.3386;stroke-dasharray:none;stroke-opacity:1"
         d="m 1407.9659,139.74471 281.3912,494.83258"
         id="path50" /><path
         style="display:inline;opacity:1;fill:#ffffff;fill-opacity:1;stroke:#ffffff;stroke-width:11.3386;stroke-dasharray:none;stroke-opacity:1"
         d="m 1126.5748,304.6914 h 562.7823"
         id="path53" /><path
         style="display:inline;opacity:1;fill:#ffffff;fill-opacity:1;stroke:#ffffff;stroke-width:11.3386;stroke-dasharray:none;stroke-opacity:1"
         d="m 1407.9659,139.74493 10e-5,206.63919"
         id="path56" /><path
         style="display:inline;opacity:1;fill:#ffffff;fill-opacity:1;stroke:#ffffff;stroke-width:11.3386;stroke-dasharray:none;stroke-opacity:1"
         d="m 1407.9658,592.88229 10e-5,206.63919"
         id="path61" /><path
         style="display:inline;opacity:1;fill:#ffffff;fill-opacity:1;stroke:#ffffff;stroke-width:11.3386;stroke-dasharray:none;stroke-opacity:1"
         d="M 1689.3571,304.6914 1514.5172,407.17642"
         id="path62" /><path
         style="display:inline;opacity:1;fill:#ffffff;fill-opacity:1;stroke:#ffffff;stroke-width:11.3386;stroke-dasharray:none;stroke-opacity:1"
         d="M 1301.4147,407.17642 1126.5748,304.6914"
         id="path63" /><path
         style="display:inline;opacity:1;fill:#ffffff;fill-opacity:1;stroke:#ffffff;stroke-width:11.3386;stroke-dasharray:none;stroke-opacity:1"
         d="M 1690.5741,634.29007 1515.7342,531.80505"
         id="path64" /><path
         style="display:inline;opacity:1;fill:#ffffff;fill-opacity:1;stroke:#ffffff;stroke-width:11.3386;stroke-dasharray:none;stroke-opacity:1"
         d="M 1301.1675,532.52362 1126.3276,635.00864"
         id="path65" /><path
         style="display:inline;opacity:1;fill:#ffffff;fill-opacity:1;stroke:#ffffff;stroke-width:39.685;stroke-dasharray:none;stroke-opacity:1"
         d="M 1407.9659,469.63309 1244.6451,752.51304"
         id="path79" /><path
         style="display:inline;opacity:1;fill:#ffffff;fill-opacity:1;stroke:#ffffff;stroke-width:39.685;stroke-dasharray:none;stroke-opacity:1"
         d="m 1408.9405,469.63309 163.3208,282.87995"
         id="path80" /><ellipse
         style="display:inline;opacity:1;fill:#ffffff;fill-opacity:1;stroke:#ffffff;stroke-width:1.23308;stroke-opacity:1"
         id="ellipse80"
         cx="1209.5641"
         cy="352.85217"
         rx="23.266516"
         ry="23.282354" /><ellipse
         style="display:inline;opacity:1;fill:#ffffff;fill-opacity:1;stroke:#ffffff;stroke-width:1.23308;stroke-opacity:1"
         id="ellipse81"
         cx="1607.585"
         cy="352.85217"
         rx="23.266516"
         ry="23.282354" /><ellipse
         style="display:inline;opacity:1;fill:#ffffff;fill-opacity:1;stroke:#ffffff;stroke-width:1.23308;stroke-opacity:1"
         id="ellipse82"
         cx="1607.585"
         cy="586.62604"
         rx="23.266516"
         ry="23.282354" /><ellipse
         style="display:inline;opacity:1;fill:#ffffff;fill-opacity:1;stroke:#ffffff;stroke-width:1.23308;stroke-opacity:1"
         id="ellipse83"
         cx="1209.5641"
         cy="586.62604"
         rx="23.266516"
         ry="23.282354" /><path
         id="path60"
         style="baseline-shift:baseline;display:inline;overflow:visible;opacity:1;vector-effect:none;fill:#ffffff;fill-opacity:1;stroke:#ffffff;stroke-opacity:1;enable-background:accumulate;stop-color:#000000"
         d="m 1684.4297,301.88867 -162.0195,284.91016 6.5722,11.38281 165.3028,-290.6875 z m -207.4961,364.88281 -73.8965,129.94727 9.8574,5.60547 70.6114,-124.16992 z" /><path
         id="path73"
         style="baseline-shift:baseline;display:inline;overflow:visible;opacity:1;vector-effect:none;fill:#ffffff;fill-opacity:1;stroke:#ffffff;stroke-opacity:1;enable-background:accumulate;stop-color:#000000"
         d="m 1686.4902,629.68555 -104.0918,61.01562 5.67,9.82031 104.1562,-61.05273 z m -172.5664,101.15429 -108.8242,63.79102 5.7324,9.78125 108.7618,-63.75195 z" /><path
         id="path58"
         style="baseline-shift:baseline;display:inline;overflow:visible;opacity:1;vector-effect:none;fill:#ffffff;fill-opacity:1;stroke:#ffffff;stroke-opacity:1;enable-background:accumulate;stop-color:#000000"
         d="m 1690.5703,628.62109 -143.9726,0.0742 6.5449,11.33399 137.4375,-0.0703 z m -235.5937,0.11914 -90.8907,0.0469 -6.5488,11.3418 103.9844,-0.0527 z m -186.9317,0.0957 -141.4726,0.0723 0.01,11.33789 134.9141,-0.0684 z" /><path
         id="path89"
         style="baseline-shift:baseline;display:inline;overflow:visible;opacity:1;vector-effect:none;fill:#ffffff;fill-opacity:1;stroke:#ffffff;stroke-opacity:1;enable-background:accumulate;stop-color:#000000"
         d="m 1131.5039,301.88867 -9.8574,5.60547 164.7051,289.63281 6.5703,-11.38281 z m 209.0606,367.63672 -6.5723,11.38281 69.0449,121.41602 9.8574,-5.60547 z" /><path
         id="path91"
         style="baseline-shift:baseline;display:inline;overflow:visible;opacity:1;vector-effect:none;fill:#ffffff;fill-opacity:1;stroke:#ffffff;stroke-opacity:1;enable-background:accumulate;stop-color:#000000"
         d="m 1129.4434,629.68555 -5.7325,9.7832 103.252,60.52344 5.668,-9.81836 z m 174.9238,102.53711 -5.6699,9.82031 106.4023,62.36914 5.7324,-9.78125 z" /></g><g
       id="g128"
       style="opacity:1;fill:#ffffff;fill-opacity:1;stroke:#ffffff;stroke-opacity:1"
       transform="matrix(0.5,0.8660254,0.8660254,-0.5,-29.372813,50.875308)"><circle
         style="display:inline;opacity:1;fill:#ffffff;fill-opacity:1;stroke:#ffffff;stroke-width:1.42835;stroke-opacity:1"
         id="circle100"
         cx="1407.9659"
         cy="469.63309"
         r="101" /><ellipse
         style="display:inline;opacity:1;fill:#ffffff;fill-opacity:1;stroke:#ffffff;stroke-width:1.23308;stroke-opacity:1"
         id="ellipse100"
         cx="1689.3571"
         cy="304.69016"
         rx="23.266516"
         ry="23.282354" /><ellipse
         style="display:inline;opacity:1;fill:#ffffff;fill-opacity:1;stroke:#ffffff;stroke-width:1.23308;stroke-opacity:1"
         id="ellipse101"
         cx="1126.0748"
         cy="634.57727"
         rx="23.266516"
         ry="23.282354" /><ellipse
         style="display:inline;opacity:1;fill:#ffffff;fill-opacity:1;stroke:#ffffff;stroke-width:1.23308;stroke-opacity:1"
         id="ellipse102"
         cx="1408.2188"
         cy="139.31335"
         rx="23.266516"
         ry="23.282354" /><ellipse
         style="display:inline;opacity:1;fill:#ffffff;fill-opacity:1;stroke:#ffffff;stroke-width:1.23308;stroke-opacity:1"
         id="ellipse103"
         cx="1126.5748"
         cy="304.69141"
         rx="23.266516"
         ry="23.282354" /><ellipse
         style="display:inline;opacity:1;fill:#ffffff;fill-opacity:1;stroke:#ffffff;stroke-width:1.23308;stroke-opacity:1"
         id="ellipse104"
         cx="1409.6686"
         cy="799.95282"
         rx="23.266516"
         ry="23.282354" /><ellipse
         style="display:inline;opacity:1;fill:#ffffff;fill-opacity:1;stroke:#ffffff;stroke-width:1.23308;stroke-opacity:1"
         id="ellipse105"
         cx="1689.61"
         cy="634.14594"
         rx="23.266516"
         ry="23.282354" /><ellipse
         style="display:inline;opacity:1;fill:#ffffff;fill-opacity:1;stroke:#ffffff;stroke-width:1.23308;stroke-opacity:1"
         id="ellipse106"
         cx="1408.2188"
         cy="235.81335"
         rx="23.266516"
         ry="23.282354" /><ellipse
         style="display:inline;opacity:1;fill:#ffffff;fill-opacity:1;stroke:#ffffff;stroke-width:1.23308;stroke-opacity:1"
         id="ellipse107"
         cx="1407.8425"
         cy="703.45282"
         rx="23.266516"
         ry="23.282354" /><path
         style="display:inline;opacity:1;fill:#ffffff;fill-opacity:1;stroke:#ffffff;stroke-width:11.339;stroke-dasharray:none;stroke-opacity:1"
         d="M 1126.5748,634.57728 V 304.6914"
         id="path107" /><path
         style="display:inline;opacity:1;fill:#ffffff;fill-opacity:1;stroke:#ffffff;stroke-width:11.3386;stroke-dasharray:none;stroke-opacity:1"
         d="M 1126.5748,304.6914 1407.9659,139.74471"
         id="path108" /><path
         style="display:inline;opacity:1;fill:#ffffff;fill-opacity:1;stroke:#ffffff;stroke-width:11.3386;stroke-dasharray:none;stroke-opacity:1"
         d="M 1689.3571,304.6914 1407.9659,139.74471"
         id="path109" /><path
         style="display:inline;opacity:1;fill:#ffffff;fill-opacity:1;stroke:#ffffff;stroke-width:11.3386;stroke-dasharray:none;stroke-opacity:1"
         d="M 1689.3571,634.57729 V 304.6914"
         id="path110" /><path
         style="display:inline;opacity:1;fill:#ffffff;fill-opacity:1;stroke:#ffffff;stroke-width:11.3386;stroke-dasharray:none;stroke-opacity:1"
         d="M 1407.9659,139.74471 1126.5748,634.57728"
         id="path111" /><path
         style="display:inline;opacity:1;fill:#ffffff;fill-opacity:1;stroke:#ffffff;stroke-width:11.3386;stroke-dasharray:none;stroke-opacity:1"
         d="m 1407.9659,139.74471 281.3912,494.83258"
         id="path112" /><path
         style="display:inline;opacity:1;fill:#ffffff;fill-opacity:1;stroke:#ffffff;stroke-width:11.3386;stroke-dasharray:none;stroke-opacity:1"
         d="m 1126.5748,304.6914 h 562.7823"
         id="path113" /><path
         style="display:inline;opacity:1;fill:#ffffff;fill-opacity:1;stroke:#ffffff;stroke-width:11.3386;stroke-dasharray:none;stroke-opacity:1"
         d="m 1407.9659,139.74493 10e-5,206.63919"
         id="path114" /><path
         style="display:inline;opacity:1;fill:#ffffff;fill-opacity:1;stroke:#ffffff;stroke-width:11.3386;stroke-dasharray:none;stroke-opacity:1"
         d="m 1407.9658,592.88229 10e-5,206.63919"
         id="path115" /><path
         style="display:inline;opacity:1;fill:#ffffff;fill-opacity:1;stroke:#ffffff;stroke-width:11.3386;stroke-dasharray:none;stroke-opacity:1"
         d="M 1689.3571,304.6914 1514.5172,407.17642"
         id="path116" /><path
         style="display:inline;opacity:1;fill:#ffffff;fill-opacity:1;stroke:#ffffff;stroke-width:11.3386;stroke-dasharray:none;stroke-opacity:1"
         d="M 1301.4147,407.17642 1126.5748,304.6914"
         id="path117" /><path
         style="display:inline;opacity:1;fill:#ffffff;fill-opacity:1;stroke:#ffffff;stroke-width:11.3386;stroke-dasharray:none;stroke-opacity:1"
         d="M 1690.5741,634.29007 1515.7342,531.80505"
         id="path118" /><path
         style="display:inline;opacity:1;fill:#ffffff;fill-opacity:1;stroke:#ffffff;stroke-width:11.3386;stroke-dasharray:none;stroke-opacity:1"
         d="M 1301.1675,532.52362 1126.3276,635.00864"
         id="path119" /><path
         style="display:inline;opacity:1;fill:#ffffff;fill-opacity:1;stroke:#ffffff;stroke-width:39.685;stroke-dasharray:none;stroke-opacity:1"
         d="M 1407.9659,469.63309 1244.6451,752.51304"
         id="path120" /><path
         style="display:inline;opacity:1;fill:#ffffff;fill-opacity:1;stroke:#ffffff;stroke-width:39.685;stroke-dasharray:none;stroke-opacity:1"
         d="m 1408.9405,469.63309 163.3208,282.87995"
         id="path121" /><ellipse
         style="display:inline;opacity:1;fill:#ffffff;fill-opacity:1;stroke:#ffffff;stroke-width:1.23308;stroke-opacity:1"
         id="ellipse121"
         cx="1209.5641"
         cy="352.85217"
         rx="23.266516"
         ry="23.282354" /><ellipse
         style="display:inline;opacity:1;fill:#ffffff;fill-opacity:1;stroke:#ffffff;stroke-width:1.23308;stroke-opacity:1"
         id="ellipse122"
         cx="1607.585"
         cy="352.85217"
         rx="23.266516"
         ry="23.282354" /><ellipse
         style="display:inline;opacity:1;fill:#ffffff;fill-opacity:1;stroke:#ffffff;stroke-width:1.23308;stroke-opacity:1"
         id="ellipse123"
         cx="1607.585"
         cy="586.62604"
         rx="23.266516"
         ry="23.282354" /><ellipse
         style="display:inline;opacity:1;fill:#ffffff;fill-opacity:1;stroke:#ffffff;stroke-width:1.23308;stroke-opacity:1"
         id="ellipse124"
         cx="1209.5641"
         cy="586.62604"
         rx="23.266516"
         ry="23.282354" /><path
         id="path124"
         style="baseline-shift:baseline;display:inline;overflow:visible;opacity:1;vector-effect:none;fill:#ffffff;fill-opacity:1;stroke:#ffffff;stroke-opacity:1;enable-background:accumulate;stop-color:#000000"
         d="m 1684.4297,301.88867 -162.0195,284.91016 6.5722,11.38281 165.3028,-290.6875 z m -207.4961,364.88281 -73.8965,129.94727 9.8574,5.60547 70.6114,-124.16992 z" /><path
         id="path125"
         style="baseline-shift:baseline;display:inline;overflow:visible;opacity:1;vector-effect:none;fill:#ffffff;fill-opacity:1;stroke:#ffffff;stroke-opacity:1;enable-background:accumulate;stop-color:#000000"
         d="m 1686.4902,629.68555 -104.0918,61.01562 5.67,9.82031 104.1562,-61.05273 z m -172.5664,101.15429 -108.8242,63.79102 5.7324,9.78125 108.7618,-63.75195 z" /><path
         id="path126"
         style="baseline-shift:baseline;display:inline;overflow:visible;opacity:1;vector-effect:none;fill:#ffffff;fill-opacity:1;stroke:#ffffff;stroke-opacity:1;enable-background:accumulate;stop-color:#000000"
         d="m 1690.5703,628.62109 -143.9726,0.0742 6.5449,11.33399 137.4375,-0.0703 z m -235.5937,0.11914 -90.8907,0.0469 -6.5488,11.3418 103.9844,-0.0527 z m -186.9317,0.0957 -141.4726,0.0723 0.01,11.33789 134.9141,-0.0684 z" /><path
         id="path127"
         style="baseline-shift:baseline;display:inline;overflow:visible;opacity:1;vector-effect:none;fill:#ffffff;fill-opacity:1;stroke:#ffffff;stroke-opacity:1;enable-background:accumulate;stop-color:#000000"
         d="m 1131.5039,301.88867 -9.8574,5.60547 164.7051,289.63281 6.5703,-11.38281 z m 209.0606,367.63672 -6.5723,11.38281 69.0449,121.41602 9.8574,-5.60547 z" /><path
         id="path128"
         style="baseline-shift:baseline;display:inline;overflow:visible;opacity:1;vector-effect:none;fill:#ffffff;fill-opacity:1;stroke:#ffffff;stroke-opacity:1;enable-background:accumulate;stop-color:#000000"
         d="m 1129.4434,629.68555 -5.7325,9.7832 103.252,60.52344 5.668,-9.81836 z m 174.9238,102.53711 -5.6699,9.82031 106.4023,62.36914 5.7324,-9.78125 z" /></g><g
       id="g156"
       style="opacity:1;fill:#ffffff;fill-opacity:1;stroke:#ffffff;stroke-opacity:1"
       transform="matrix(0.5,-0.8660254,-0.8660254,-0.5,1437.8261,2490.3878)"><circle
         style="display:inline;opacity:1;fill:#ffffff;fill-opacity:1;stroke:#ffffff;stroke-width:1.42835;stroke-opacity:1"
         id="circle128"
         cx="1407.9659"
         cy="469.63309"
         r="101" /><ellipse
         style="display:inline;opacity:1;fill:#ffffff;fill-opacity:1;stroke:#ffffff;stroke-width:1.23308;stroke-opacity:1"
         id="ellipse128"
         cx="1689.3571"
         cy="304.69016"
         rx="23.266516"
         ry="23.282354" /><ellipse
         style="display:inline;opacity:1;fill:#ffffff;fill-opacity:1;stroke:#ffffff;stroke-width:1.23308;stroke-opacity:1"
         id="ellipse129"
         cx="1126.0748"
         cy="634.57727"
         rx="23.266516"
         ry="23.282354" /><ellipse
         style="display:inline;opacity:1;fill:#ffffff;fill-opacity:1;stroke:#ffffff;stroke-width:1.23308;stroke-opacity:1"
         id="ellipse130"
         cx="1408.2188"
         cy="139.31335"
         rx="23.266516"
         ry="23.282354" /><ellipse
         style="display:inline;opacity:1;fill:#ffffff;fill-opacity:1;stroke:#ffffff;stroke-width:1.23308;stroke-opacity:1"
         id="ellipse131"
         cx="1126.5748"
         cy="304.69141"
         rx="23.266516"
         ry="23.282354" /><ellipse
         style="display:inline;opacity:1;fill:#ffffff;fill-opacity:1;stroke:#ffffff;stroke-width:1.23308;stroke-opacity:1"
         id="ellipse132"
         cx="1409.6686"
         cy="799.95282"
         rx="23.266516"
         ry="23.282354" /><ellipse
         style="display:inline;opacity:1;fill:#ffffff;fill-opacity:1;stroke:#ffffff;stroke-width:1.23308;stroke-opacity:1"
         id="ellipse133"
         cx="1689.61"
         cy="634.14594"
         rx="23.266516"
         ry="23.282354" /><ellipse
         style="display:inline;opacity:1;fill:#ffffff;fill-opacity:1;stroke:#ffffff;stroke-width:1.23308;stroke-opacity:1"
         id="ellipse134"
         cx="1408.2188"
         cy="235.81335"
         rx="23.266516"
         ry="23.282354" /><ellipse
         style="display:inline;opacity:1;fill:#ffffff;fill-opacity:1;stroke:#ffffff;stroke-width:1.23308;stroke-opacity:1"
         id="ellipse135"
         cx="1407.8425"
         cy="703.45282"
         rx="23.266516"
         ry="23.282354" /><path
         style="display:inline;opacity:1;fill:#ffffff;fill-opacity:1;stroke:#ffffff;stroke-width:11.339;stroke-dasharray:none;stroke-opacity:1"
         d="M 1126.5748,634.57728 V 304.6914"
         id="path135" /><path
         style="display:inline;opacity:1;fill:#ffffff;fill-opacity:1;stroke:#ffffff;stroke-width:11.3386;stroke-dasharray:none;stroke-opacity:1"
         d="M 1126.5748,304.6914 1407.9659,139.74471"
         id="path136" /><path
         style="display:inline;opacity:1;fill:#ffffff;fill-opacity:1;stroke:#ffffff;stroke-width:11.3386;stroke-dasharray:none;stroke-opacity:1"
         d="M 1689.3571,304.6914 1407.9659,139.74471"
         id="path137" /><path
         style="display:inline;opacity:1;fill:#ffffff;fill-opacity:1;stroke:#ffffff;stroke-width:11.3386;stroke-dasharray:none;stroke-opacity:1"
         d="M 1689.3571,634.57729 V 304.6914"
         id="path138" /><path
         style="display:inline;opacity:1;fill:#ffffff;fill-opacity:1;stroke:#ffffff;stroke-width:11.3386;stroke-dasharray:none;stroke-opacity:1"
         d="M 1407.9659,139.74471 1126.5748,634.57728"
         id="path139" /><path
         style="display:inline;opacity:1;fill:#ffffff;fill-opacity:1;stroke:#ffffff;stroke-width:11.3386;stroke-dasharray:none;stroke-opacity:1"
         d="m 1407.9659,139.74471 281.3912,494.83258"
         id="path140" /><path
         style="display:inline;opacity:1;fill:#ffffff;fill-opacity:1;stroke:#ffffff;stroke-width:11.3386;stroke-dasharray:none;stroke-opacity:1"
         d="m 1126.5748,304.6914 h 562.7823"
         id="path141" /><path
         style="display:inline;opacity:1;fill:#ffffff;fill-opacity:1;stroke:#ffffff;stroke-width:11.3386;stroke-dasharray:none;stroke-opacity:1"
         d="m 1407.9659,139.74493 10e-5,206.63919"
         id="path142" /><path
         style="display:inline;opacity:1;fill:#ffffff;fill-opacity:1;stroke:#ffffff;stroke-width:11.3386;stroke-dasharray:none;stroke-opacity:1"
         d="m 1407.9658,592.88229 10e-5,206.63919"
         id="path143" /><path
         style="display:inline;opacity:1;fill:#ffffff;fill-opacity:1;stroke:#ffffff;stroke-width:11.3386;stroke-dasharray:none;stroke-opacity:1"
         d="M 1689.3571,304.6914 1514.5172,407.17642"
         id="path144" /><path
         style="display:inline;opacity:1;fill:#ffffff;fill-opacity:1;stroke:#ffffff;stroke-width:11.3386;stroke-dasharray:none;stroke-opacity:1"
         d="M 1301.4147,407.17642 1126.5748,304.6914"
         id="path145" /><path
         style="display:inline;opacity:1;fill:#ffffff;fill-opacity:1;stroke:#ffffff;stroke-width:11.3386;stroke-dasharray:none;stroke-opacity:1"
         d="M 1690.5741,634.29007 1515.7342,531.80505"
         id="path146" /><path
         style="display:inline;opacity:1;fill:#ffffff;fill-opacity:1;stroke:#ffffff;stroke-width:11.3386;stroke-dasharray:none;stroke-opacity:1"
         d="M 1301.1675,532.52362 1126.3276,635.00864"
         id="path147" /><path
         style="display:inline;opacity:1;fill:#ffffff;fill-opacity:1;stroke:#ffffff;stroke-width:39.685;stroke-dasharray:none;stroke-opacity:1"
         d="M 1407.9659,469.63309 1244.6451,752.51304"
         id="path148" /><path
         style="display:inline;opacity:1;fill:#ffffff;fill-opacity:1;stroke:#ffffff;stroke-width:39.685;stroke-dasharray:none;stroke-opacity:1"
         d="m 1408.9405,469.63309 163.3208,282.87995"
         id="path149" /><ellipse
         style="display:inline;opacity:1;fill:#ffffff;fill-opacity:1;stroke:#ffffff;stroke-width:1.23308;stroke-opacity:1"
         id="ellipse149"
         cx="1209.5641"
         cy="352.85217"
         rx="23.266516"
         ry="23.282354" /><ellipse
         style="display:inline;opacity:1;fill:#ffffff;fill-opacity:1;stroke:#ffffff;stroke-width:1.23308;stroke-opacity:1"
         id="ellipse150"
         cx="1607.585"
         cy="352.85217"
         rx="23.266516"
         ry="23.282354" /><ellipse
         style="display:inline;opacity:1;fill:#ffffff;fill-opacity:1;stroke:#ffffff;stroke-width:1.23308;stroke-opacity:1"
         id="ellipse151"
         cx="1607.585"
         cy="586.62604"
         rx="23.266516"
         ry="23.282354" /><ellipse
         style="display:inline;opacity:1;fill:#ffffff;fill-opacity:1;stroke:#ffffff;stroke-width:1.23308;stroke-opacity:1"
         id="ellipse152"
         cx="1209.5641"
         cy="586.62604"
         rx="23.266516"
         ry="23.282354" /><path
         id="path152"
         style="baseline-shift:baseline;display:inline;overflow:visible;opacity:1;vector-effect:none;fill:#ffffff;fill-opacity:1;stroke:#ffffff;stroke-opacity:1;enable-background:accumulate;stop-color:#000000"
         d="m 1684.4297,301.88867 -162.0195,284.91016 6.5722,11.38281 165.3028,-290.6875 z m -207.4961,364.88281 -73.8965,129.94727 9.8574,5.60547 70.6114,-124.16992 z" /><path
         id="path153"
         style="baseline-shift:baseline;display:inline;overflow:visible;opacity:1;vector-effect:none;fill:#ffffff;fill-opacity:1;stroke:#ffffff;stroke-opacity:1;enable-background:accumulate;stop-color:#000000"
         d="m 1686.4902,629.68555 -104.0918,61.01562 5.67,9.82031 104.1562,-61.05273 z m -172.5664,101.15429 -108.8242,63.79102 5.7324,9.78125 108.7618,-63.75195 z" /><path
         id="path154"
         style="baseline-shift:baseline;display:inline;overflow:visible;opacity:1;vector-effect:none;fill:#ffffff;fill-opacity:1;stroke:#ffffff;stroke-opacity:1;enable-background:accumulate;stop-color:#000000"
         d="m 1690.5703,628.62109 -143.9726,0.0742 6.5449,11.33399 137.4375,-0.0703 z m -235.5937,0.11914 -90.8907,0.0469 -6.5488,11.3418 103.9844,-0.0527 z m -186.9317,0.0957 -141.4726,0.0723 0.01,11.33789 134.9141,-0.0684 z" /><path
         id="path155"
         style="baseline-shift:baseline;display:inline;overflow:visible;opacity:1;vector-effect:none;fill:#ffffff;fill-opacity:1;stroke:#ffffff;stroke-opacity:1;enable-background:accumulate;stop-color:#000000"
         d="m 1131.5039,301.88867 -9.8574,5.60547 164.7051,289.63281 6.5703,-11.38281 z m 209.0606,367.63672 -6.5723,11.38281 69.0449,121.41602 9.8574,-5.60547 z" /><path
         id="path156"
         style="baseline-shift:baseline;display:inline;overflow:visible;opacity:1;vector-effect:none;fill:#ffffff;fill-opacity:1;stroke:#ffffff;stroke-opacity:1;enable-background:accumulate;stop-color:#000000"
         d="m 1129.4434,629.68555 -5.7325,9.7832 103.252,60.52344 5.668,-9.81836 z m 174.9238,102.53711 -5.6699,9.82031 106.4023,62.36914 5.7324,-9.78125 z" /></g></g><path
     style="font-size:262.937px;font-family:Manrope;-inkscape-font-specification:Manrope;letter-spacing:-8.12px;fill:#ffffff;stroke-width:77.7555;stroke-linejoin:round"
     d="M 536.0547,306.97171 V 117.65706 h 19.45734 L 659.76656,272.7899 V 117.65706 H 679.2239 V 306.97171 H 659.76656 L 555.51204,151.7074 v 155.26431 z m 171.86032,0 V 117.65706 h 73.09649 q 2.76084,0 6.17902,0.26294 3.54965,0.13147 7.0993,0.78881 14.85594,2.23496 25.11048,10.38601 10.38602,8.01958 15.64476,20.24615 5.3902,12.22657 5.3902,27.08251 0,14.72448 -5.3902,26.95105 -5.39021,12.22657 -15.77622,20.37762 -10.25455,8.01957 -24.97902,10.25454 -3.54965,0.52587 -7.0993,0.78881 -3.41818,0.26294 -6.17902,0.26294 h -53.77062 v 71.91327 z m 19.32587,-90.31886 h 53.24475 q 2.36643,0 5.52167,-0.26294 3.15525,-0.26294 6.17902,-0.92028 9.72867,-2.1035 15.90769,-8.01958 6.31049,-5.91608 9.33427,-14.06713 3.15524,-8.15105 3.15524,-16.95944 0,-8.80839 -3.15524,-16.95943 -3.02378,-8.28252 -9.33427,-14.1986 -6.17902,-5.91608 -15.90769,-8.01958 -3.02377,-0.65734 -6.17902,-0.78881 -3.15524,-0.26294 -5.52167,-0.26294 h -53.24475 z m 105.07461,90.31886 65.20838,-189.31465 h 25.63636 l 65.20838,189.31465 H 968.25394 L 906.33227,128.43748 h 7.62518 l -61.52727,178.53423 z m 29.05454,-45.88251 v -18.14265 h 97.81257 v 18.14265 z m 142.54266,45.88251 V 117.65706 h 73.0965 q 2.7609,0 6.179,0.26294 3.5497,0.13147 7.0993,0.78881 14.856,2.23496 25.1105,10.38601 10.386,8.01958 15.6448,20.24615 5.3902,12.22657 5.3902,27.08251 0,14.72448 -5.3902,26.95105 -5.3902,12.22657 -15.7762,20.37762 -10.2546,8.01957 -24.9791,10.25454 -3.5496,0.52587 -7.0993,0.78881 -3.4181,0.26294 -6.179,0.26294 h -53.7706 v 71.91327 z m 19.3259,-90.31886 h 53.2447 q 2.3665,0 5.5217,-0.26294 3.1553,-0.26294 6.179,-0.92028 9.7287,-2.1035 15.9077,-8.01958 6.3105,-5.91608 9.3343,-14.06713 3.1552,-8.15105 3.1552,-16.95944 0,-8.80839 -3.1552,-16.95943 -3.0238,-8.28252 -9.3343,-14.1986 -6.179,-5.91608 -15.9077,-8.01958 -3.0237,-0.65734 -6.179,-0.78881 -3.1552,-0.26294 -5.5217,-0.26294 h -53.2447 z"
     id="text5"
     transform="scale(0.99059479,1.0094945)"
     aria-label="NPAP" /></svg>
